<?xml version="1.0" standalone="no"?>
<!DOCTYPE svg PUBLIC "-//W3C//DTD SVG 20010904//EN"
 "http://www.w3.org/TR/2001/REC-SVG-20010904/DTD/svg10.dtd">
<svg version="1.0" xmlns="http://www.w3.org/2000/svg"
 width="1124.000000pt" height="1124.000000pt" viewBox="0 0 1124.000000 1124.000000"
 preserveAspectRatio="xMidYMid meet">
<metadata>
Created by potrace 1.11, written by Peter Selinger 2001-2013
</metadata>
<g transform="translate(0.000000,1124.000000) scale(0.100000,-0.100000)"
fill="#000000" stroke="none">
<path d="M0 5620 l0 -3340 790 0 790 0 0 3340 0 3340 -790 0 -790 0 0 -3340z"/>
<path d="M3099 7413 c-1 -852 0 -1552 1 -1558 1 -5 2 -43 1 -82 l-2 -73 38 -1
c21 0 63 0 93 1 30 0 61 1 68 1 22 0 462 0 477 0 8 0 44 0 80 0 36 0 72 0 80
0 8 0 116 0 240 0 124 0 232 0 240 0 116 -3 147 -2 152 2 3 3 15 2 27 -2 11
-5 30 -5 41 -1 11 4 26 3 34 -4 11 -9 13 -4 9 27 -2 20 0 37 5 37 4 0 5 5 1
11 -8 13 -8 128 0 136 2 3 1 15 -4 27 -4 13 -5 29 0 36 5 7 5 23 0 35 -5 12
-4 28 0 35 5 9 4 20 -2 27 -6 8 -7 13 -1 13 7 0 8 15 3 40 -4 22 -3 40 2 40 5
0 4 9 -2 20 -6 11 -7 20 -3 20 4 0 7 24 5 52 -4 69 -4 67 -3 108 1 19 0 49 -2
65 -1 17 1 42 5 57 3 15 3 30 -2 33 -4 3 -4 20 0 39 4 19 4 40 0 46 -4 7 -4
25 0 40 4 15 4 33 0 40 -4 7 -4 24 0 39 4 14 6 35 4 46 -6 35 -7 126 -1 131 3
3 1 19 -3 35 -5 18 -5 29 1 29 6 0 5 8 -1 20 -6 11 -7 20 -3 20 4 0 7 24 6 52
-5 118 -5 169 0 175 3 3 2 16 -3 29 -6 16 -6 24 1 24 6 0 6 7 -1 20 -6 11 -7
20 -2 20 5 0 6 22 2 48 -3 27 -3 61 1 75 4 15 4 29 -1 32 -4 3 -4 20 0 39 4
19 4 40 0 46 -4 7 -4 25 0 40 4 15 4 33 0 40 -4 7 -5 24 -1 38 4 14 4 47 1 72
-3 26 -3 56 1 66 3 11 3 28 -1 40 -5 11 -5 27 0 34 5 7 5 23 0 35 -5 12 -4 28
0 35 5 9 4 20 -2 27 -6 8 -7 13 -1 13 7 0 8 15 3 40 -4 22 -3 40 2 40 5 0 4 9
-2 20 -6 11 -7 20 -3 20 4 0 7 24 5 52 -4 69 -4 67 -3 108 1 19 0 49 -2 65 -1
17 1 42 5 57 3 15 3 30 -2 33 -4 3 -4 20 0 39 4 19 4 40 0 46 -4 7 -4 25 0 40
4 15 4 33 0 40 -4 7 -4 24 0 39 4 14 6 35 4 46 -2 11 -4 45 -4 75 1 97 -1 123
-6 132 -3 4 -1 8 4 8 5 0 7 14 4 30 l-4 30 -789 0 -789 0 -1 -1547z"/>
<path d="M6602 8941 c-4 -11 -5 -56 -2 -101 3 -45 1 -84 -3 -87 -4 -3 -3 -11
4 -19 6 -8 7 -14 2 -14 -6 0 -7 -21 -3 -50 4 -28 4 -53 0 -55 -4 -2 -4 -25 0
-50 4 -25 3 -45 -1 -45 -5 0 -5 -10 0 -22 5 -13 5 -31 2 -42 -4 -10 -4 -39 -1
-65 3 -25 3 -61 -1 -79 -4 -18 -3 -35 1 -37 5 -3 5 -18 0 -34 -4 -15 -4 -34 0
-41 4 -7 4 -25 0 -40 -4 -15 -4 -33 0 -40 4 -7 4 -24 0 -39 -4 -14 -5 -35 -3
-46 2 -11 3 -27 3 -35 1 -8 1 -53 1 -99 0 -46 2 -88 5 -92 2 -4 0 -11 -6 -14
-8 -5 -7 -11 1 -21 6 -8 7 -14 2 -14 -6 0 -7 -21 -3 -50 4 -28 4 -53 0 -55 -4
-2 -4 -25 0 -50 4 -25 3 -45 -1 -45 -5 0 -4 -11 1 -24 5 -13 6 -26 3 -29 -5
-6 -6 -99 0 -170 1 -21 -1 -41 -4 -43 -4 -2 -4 -19 0 -36 4 -18 5 -44 1 -58
-3 -13 -3 -46 0 -72 4 -27 2 -48 -2 -48 -5 0 -6 -4 -3 -10 9 -14 12 -91 4 -96
-4 -2 -4 -19 0 -36 4 -18 5 -44 1 -58 -3 -13 -3 -46 0 -72 4 -27 2 -48 -2 -48
-5 0 -6 -4 -3 -10 9 -14 12 -91 4 -96 -4 -2 -4 -19 0 -36 4 -18 5 -44 1 -58
-3 -13 -3 -46 0 -72 4 -27 2 -48 -2 -48 -5 0 -6 -4 -3 -10 9 -14 12 -91 4 -96
-4 -2 -4 -19 0 -36 4 -18 5 -44 1 -58 -3 -13 -3 -46 0 -72 4 -27 2 -48 -2 -48
-5 0 -6 -4 -3 -10 9 -14 12 -91 4 -96 -4 -2 -4 -19 0 -36 4 -18 5 -44 1 -58
-3 -13 -3 -46 0 -72 4 -27 2 -48 -2 -48 -5 0 -6 -4 -3 -10 9 -14 12 -91 4 -96
-4 -2 -4 -19 0 -36 4 -18 5 -44 1 -58 -3 -13 -3 -46 0 -72 4 -27 2 -48 -2 -48
-5 0 -6 -4 -3 -10 9 -14 12 -91 4 -96 -4 -2 -4 -19 0 -36 4 -18 5 -44 1 -58
-3 -13 -3 -46 0 -72 4 -27 2 -48 -2 -48 -5 0 -6 -4 -3 -10 9 -14 12 -91 4 -96
-4 -2 -4 -19 0 -36 4 -18 5 -44 1 -58 -3 -13 -3 -46 0 -72 4 -27 3 -48 -2 -48
-4 0 -4 -10 1 -22 5 -13 6 -31 2 -40 -3 -9 -4 -54 -1 -99 3 -44 1 -83 -3 -86
-4 -3 -3 -11 4 -19 6 -8 7 -14 2 -14 -6 0 -7 -21 -3 -50 4 -28 4 -53 0 -55 -4
-2 -4 -25 0 -50 4 -25 3 -45 -1 -45 -5 0 -5 -10 0 -22 5 -13 5 -31 2 -42 -4
-10 -4 -39 -1 -65 3 -25 3 -61 -1 -79 -4 -18 -3 -35 1 -37 5 -3 5 -18 0 -34
-4 -15 -4 -34 0 -41 4 -7 4 -25 0 -40 -4 -15 -4 -33 0 -40 4 -7 4 -24 0 -39
-4 -14 -5 -35 -3 -46 2 -11 3 -27 3 -35 1 -8 1 -53 1 -99 0 -46 2 -88 5 -92 2
-4 0 -11 -6 -14 -8 -5 -7 -11 1 -21 6 -8 7 -14 2 -14 -6 0 -7 -21 -3 -50 4
-28 4 -53 0 -55 -4 -2 -4 -25 0 -50 4 -25 3 -45 -1 -45 -5 0 -5 -10 0 -22 5
-13 5 -31 2 -42 -4 -10 -4 -39 -1 -65 3 -25 3 -61 -1 -79 -4 -18 -3 -35 1 -37
5 -3 5 -18 0 -34 -4 -15 -4 -34 0 -41 4 -7 4 -25 0 -40 -4 -15 -4 -33 0 -40 4
-7 4 -24 0 -39 -4 -14 -5 -35 -3 -46 2 -11 3 -27 3 -35 1 -8 1 -53 1 -99 0
-46 2 -88 5 -92 2 -4 0 -11 -6 -14 -8 -5 -7 -11 1 -21 6 -8 7 -14 2 -14 -6 0
-7 -21 -3 -50 4 -28 4 -53 0 -55 -4 -2 -4 -25 0 -50 4 -25 3 -45 -1 -45 -5 0
-5 -10 0 -22 5 -13 5 -31 2 -41 -4 -10 -5 -35 -3 -57 l4 -40 769 0 769 0 0
3340 0 3340 -765 0 c-748 0 -766 0 -773 -19z"/>
<path d="M9680 8923 c0 -21 0 -65 0 -98 1 -33 1 -64 1 -70 0 -5 0 -37 0 -70 0
-33 0 -69 -1 -80 0 -11 0 -31 1 -45 1 -14 1 -41 -1 -60 -2 -48 -3 -69 -1 -110
1 -19 2 -46 2 -60 0 -14 2 -34 3 -45 1 -11 -1 -34 -5 -52 -4 -17 -3 -50 1 -72
4 -22 4 -45 0 -52 -4 -6 -4 -25 0 -40 5 -17 5 -31 -1 -35 -5 -3 -7 -10 -3 -15
3 -6 5 -41 4 -77 -1 -37 -1 -74 -1 -82 0 -8 0 -37 0 -65 -1 -58 0 -110 4 -145
2 -14 0 -39 -4 -57 -4 -17 -3 -50 1 -72 4 -22 4 -45 0 -52 -4 -6 -4 -25 0 -40
5 -16 5 -29 1 -29 -5 0 -5 -18 -1 -39 4 -22 4 -45 0 -52 -4 -6 -4 -23 0 -38 4
-14 5 -35 3 -46 -4 -26 -6 -72 -4 -110 1 -16 1 -39 1 -50 0 -45 -1 -131 -1
-150 0 -11 0 -46 1 -77 l1 -58 780 0 779 0 0 1090 0 1090 -780 0 -780 0 0 -37z"/>
<path d="M10333 5542 l-653 -2 -1 -53 c-1 -28 0 -56 1 -62 1 -5 1 -32 0 -60
-1 -27 -2 -57 -1 -65 0 -8 0 -37 0 -65 -1 -58 0 -110 4 -145 2 -14 0 -39 -4
-57 -4 -17 -3 -50 1 -72 4 -22 4 -45 0 -52 -4 -6 -4 -25 0 -40 5 -16 5 -29 1
-29 -5 0 -5 -18 -1 -39 4 -22 4 -45 0 -52 -4 -6 -4 -23 0 -38 4 -14 5 -35 3
-46 -4 -26 -6 -71 -4 -115 1 -19 2 -46 2 -60 0 -14 2 -34 3 -45 1 -11 -1 -34
-5 -52 -4 -17 -3 -50 1 -72 4 -22 4 -45 0 -52 -4 -6 -4 -25 0 -40 5 -17 5 -31
-1 -35 -5 -3 -7 -10 -3 -15 3 -6 5 -41 4 -77 -1 -37 -1 -74 -1 -82 0 -8 0 -37
0 -65 -1 -58 0 -110 4 -145 2 -14 0 -39 -4 -57 -4 -17 -3 -50 1 -72 4 -22 4
-45 0 -52 -4 -6 -4 -25 0 -40 5 -16 5 -29 1 -29 -5 0 -5 -18 -1 -39 4 -22 4
-45 0 -52 -4 -6 -4 -23 0 -38 4 -14 5 -35 3 -46 -4 -26 -6 -71 -4 -115 1 -19
2 -46 2 -60 0 -14 2 -34 3 -45 1 -11 -1 -34 -5 -52 -4 -17 -3 -50 1 -72 4 -22
4 -45 0 -52 -4 -6 -4 -25 0 -40 5 -17 5 -31 -1 -35 -5 -3 -7 -10 -3 -15 3 -6
5 -41 4 -77 -1 -37 -1 -74 -1 -82 0 -8 0 -37 0 -65 0 -27 0 -63 0 -80 1 -34 0
-132 -1 -155 0 -8 0 -33 1 -55 1 -22 1 -51 1 -63 0 -13 2 -28 6 -33 3 -5 325
-9 780 -9 l774 0 0 1630 0 1630 -38 -2 c-22 0 -43 1 -48 4 -5 3 -18 2 -29 -2
-11 -4 -29 -4 -40 0 -11 4 -29 4 -40 0 -11 -4 -29 -5 -40 -1 -11 3 -314 5
-672 3z"/>
<path d="M3100 3370 l0 -1090 791 0 c786 0 791 0 786 20 -3 11 -1 20 4 20 6 0
5 8 -1 20 -6 11 -7 20 -3 20 4 0 7 24 5 52 -4 69 -4 67 -3 108 1 19 0 49 -2
65 -1 17 1 42 5 57 3 15 3 30 -2 33 -4 3 -4 20 0 39 4 19 4 40 0 46 -4 7 -4
25 0 40 4 15 4 33 0 40 -4 7 -4 24 0 39 4 14 6 35 4 46 -6 35 -7 126 -1 131 3
3 1 19 -3 35 -5 18 -5 29 1 29 6 0 5 8 -1 20 -6 11 -7 20 -3 20 4 0 7 24 6 52
-5 118 -5 169 0 175 3 3 2 16 -3 29 -6 16 -6 24 1 24 6 0 6 7 -1 20 -6 11 -7
20 -2 20 5 0 6 22 2 48 -3 27 -3 61 1 75 4 15 4 29 -1 32 -4 3 -4 20 0 39 4
19 4 40 0 46 -4 7 -4 25 0 40 4 15 4 33 0 40 -4 7 -5 24 -1 38 4 14 4 47 1 72
-3 26 -3 56 1 66 3 11 3 28 -1 40 -5 11 -5 27 0 34 5 7 5 23 0 35 -5 12 -4 28
0 35 5 9 4 20 -2 27 -6 8 -7 13 -1 13 7 0 8 15 3 40 -4 22 -3 40 2 40 5 0 4 9
-2 20 -6 11 -7 20 -3 20 4 0 7 24 5 52 -2 29 -3 70 -2 91 l1 37 -791 0 -790 0
0 -1090z"/>
</g>
</svg>
